ffmpeg started on 2025-05-26 at 18:28:01
Report written to "D:\Convert\FFMetrics\reports\ssim_report-6.txt"
Log level: 32
Command line:
ffmpeg -hide_banner -nostdin -i "G:\\\xc0\xed\xe8\xec\xe5\\\xce\xed\xe3\xee\xe8\xed\xe3\xe8\\!_34_\xc2\xe5\xf1\xed\xe0_2024\\DreamCast\\\xc4\xe2\xe5 \xf1\xf2\xee\xf0\xee\xed\xfb \xf1\xfd\xe9\xfe \xf0\xe0\xe4\xe8\xee\\[DC] Seiyuu Radio no Uraomote - 12_Telegram_HEVC.mkv" -i "G:\\\xc0\xed\xe8\xec\xe5\\\xce\xed\xe3\xee\xe8\xed\xe3\xe8\\!_34_\xc2\xe5\xf1\xed\xe0_2024\\DreamCast\\\xc4\xe2\xe5 \xf1\xf2\xee\xf0\xee\xed\xfb \xf1\xfd\xe9\xfe \xf0\xe0\xe4\xe8\xee\\[DC] Seiyuu Radio no Uraomote - 12_Telegram.mp4" -lavfi "[0:v]settb=AVTB,setpts=PTS-STARTPTS,format=pix_fmts=yuv420p10,fps=24000/1001,scale=1920:1080:flags=bicubic[main];[1:v]settb=AVTB,setpts=PTS-STARTPTS,format=pix_fmts=yuv420p,fps=24000/1001,scale=1920:1080:flags=bicubic[ref];[main][ref]ssim=eof_action=endall:stats_file='D\\:/Convert/FFMetrics/logs/ssim_logfile-6.txt'" -f null -
Input #0, matroska,webm, from 'G:\Аниме\Онгоинги\!_34_Весна_2024\DreamCast\Две стороны сэйю радио\[DC] Seiyuu Radio no Uraomote - 12_Telegram_HEVC.mkv':
  Metadata:
    COMPATIBLE_BRANDS: isomiso2avc1mp41
    MAJOR_BRAND     : isom
    MINOR_VERSION   : 512
    ENCODER         : Lavf61.7.100
  Duration: 00:23:46.77, start: -0.021000, bitrate: 1413 kb/s
  Stream #0:0: Video: hevc (Main 10), yuv420p10le(tv, bt709, progressive), 1920x1080 [SAR 1:1 DAR 16:9], 23.98 fps, 23.98 tbr, 1k tbn (default)
      Metadata:
        HANDLER_NAME    : VideoHandler
        VENDOR_ID       : [0][0][0][0]
        ENCODER         : Lavc61.19.100 libx265
        BPS             : 1216205
        DURATION        : 00:23:46.591708333
        NUMBER_OF_FRAMES: 34204
        NUMBER_OF_BYTES : 216878565
        _STATISTICS_WRITING_APP: mkvpropedit v66.0.0 ('Josie') 64-bit
        _STATISTICS_WRITING_DATE_UTC: 2025-05-26 09:48:46
        _STATISTICS_TAGS: BPS DURATION NUMBER_OF_FRAMES NUMBER_OF_BYTES
  Stream #0:1: Audio: aac (LC), 48000 Hz, stereo, fltp (default)
      Metadata:
        HANDLER_NAME    : SoundHandler
        VENDOR_ID       : [0][0][0][0]
        ENCODER         : Lavc61.19.100 aac
        BPS             : 193047
        DURATION        : 00:23:46.773000000
        NUMBER_OF_FRAMES: 66881
        NUMBER_OF_BYTES : 34429361
        _STATISTICS_WRITING_APP: mkvpropedit v66.0.0 ('Josie') 64-bit
        _STATISTICS_WRITING_DATE_UTC: 2025-05-26 09:48:46
        _STATISTICS_TAGS: BPS DURATION NUMBER_OF_FRAMES NUMBER_OF_BYTES
Input #1, mov,mp4,m4a,3gp,3g2,mj2, from 'G:\Аниме\Онгоинги\!_34_Весна_2024\DreamCast\Две стороны сэйю радио\[DC] Seiyuu Radio no Uraomote - 12_Telegram.mp4':
  Metadata:
    major_brand     : isom
    minor_version   : 512
    compatible_brands: isomiso2avc1mp41
    encoder         : Lavf60.16.100
  Duration: 00:23:46.72, start: 0.000000, bitrate: 3710 kb/s
  Stream #1:0[0x1](und): Video: h264 (High) (avc1 / 0x31637661), yuv420p(tv, bt709, progressive), 1920x1080 [SAR 1:1 DAR 16:9], 3563 kb/s, 23.98 fps, 23.98 tbr, 24k tbn (default)
      Metadata:
        handler_name    : VideoHandler
        vendor_id       : [0][0][0][0]
        encoder         : Lavc60.31.102 h264_qsv
  Stream #1:1[0x2](und): Audio: aac (HE-AACv2) (mp4a / 0x6134706D), 48000 Hz, stereo, fltp, 144 kb/s (default)
      Metadata:
        handler_name    : SoundHandler
        vendor_id       : [0][0][0][0]
Stream mapping:
  Stream #0:0 (hevc) -> settb:default
  Stream #1:0 (h264) -> settb:default
  ssim:default -> Stream #0:0 (wrapped_avframe)
  Stream #0:1 -> #0:1 (aac (native) -> pcm_s16le (native))
Output #0, null, to 'pipe:':
  Metadata:
    COMPATIBLE_BRANDS: isomiso2avc1mp41
    MAJOR_BRAND     : isom
    MINOR_VERSION   : 512
    encoder         : Lavf61.7.100
  Stream #0:0: Video: wrapped_avframe, yuv420p10le(tv, bt709, progressive), 1920x1080 [SAR 1:1 DAR 16:9], q=2-31, 200 kb/s, 23.98 fps, 23.98 tbn
      Metadata:
        encoder         : Lavc61.19.100 wrapped_avframe
  Stream #0:1: Audio: pcm_s16le, 48000 Hz, stereo, s16, 1536 kb/s (default)
      Metadata:
        HANDLER_NAME    : SoundHandler
        VENDOR_ID       : [0][0][0][0]
        _STATISTICS_TAGS: BPS DURATION NUMBER_OF_FRAMES NUMBER_OF_BYTES
        BPS             : 193047
        DURATION        : 00:23:46.773000000
        NUMBER_OF_FRAMES: 66881
        NUMBER_OF_BYTES : 34429361
        _STATISTICS_WRITING_APP: mkvpropedit v66.0.0 ('Josie') 64-bit
        _STATISTICS_WRITING_DATE_UTC: 2025-05-26 09:48:46
        encoder         : Lavc61.19.100 pcm_s16le
frame=  175 fps=0.0 q=-0.0 size=N/A time=00:00:07.29 bitrate=N/A speed=14.3x    frame=  468 fps=452 q=-0.0 size=N/A time=00:00:19.51 bitrate=N/A speed=18.9x    frame=  741 fps=480 q=-0.0 size=N/A time=00:00:30.90 bitrate=N/A speed=  20x    frame= 1015 fps=490 q=-0.0 size=N/A time=00:00:42.33 bitrate=N/A speed=20.5x    frame= 1294 fps=502 q=-0.0 size=N/A time=00:00:53.97 bitrate=N/A speed=  21x    frame= 1573 fps=507 q=-0.0 size=N/A time=00:01:05.60 bitrate=N/A speed=21.1x    frame= 1807 fps=499 q=-0.0 size=N/A time=00:01:15.36 bitrate=N/A speed=20.8x    frame= 2058 fps=499 q=-0.0 size=N/A time=00:01:25.83 bitrate=N/A speed=20.8x    frame= 2306 fps=497 q=-0.0 size=N/A time=00:01:36.17 bitrate=N/A speed=20.7x    frame= 2536 fps=492 q=-0.0 size=N/A time=00:01:45.77 bitrate=N/A speed=20.5x    frame= 2791 fps=491 q=-0.0 size=N/A time=00:01:56.40 bitrate=N/A speed=20.5x    frame= 3009 fps=487 q=-0.0 size=N/A time=00:02:05.50 bitrate=N/A speed=20.3x    frame= 3134 fps=468 q=-0.0 size=N/A time=00:02:10.71 bitrate=N/A speed=19.5x    frame= 3279 fps=454 q=-0.0 size=N/A time=00:02:16.76 bitrate=N/A speed=18.9x    frame= 3496 fps=452 q=-0.0 size=N/A time=00:02:25.81 bitrate=N/A speed=18.9x    frame= 3707 fps=450 q=-0.0 size=N/A time=00:02:34.61 bitrate=N/A speed=18.7x    frame= 3933 fps=448 q=-0.0 size=N/A time=00:02:44.03 bitrate=N/A speed=18.7x    frame= 4132 fps=445 q=-0.0 size=N/A time=00:02:52.33 bitrate=N/A speed=18.6x    frame= 4347 fps=444 q=-0.0 size=N/A time=00:03:01.30 bitrate=N/A speed=18.5x    frame= 4624 fps=449 q=-0.0 size=N/A time=00:03:12.85 bitrate=N/A speed=18.7x    frame= 4916 fps=454 q=-0.0 size=N/A time=00:03:25.03 bitrate=N/A speed=18.9x    frame= 5179 fps=457 q=-0.0 size=N/A time=00:03:36.00 bitrate=N/A speed=19.1x    frame= 5457 fps=460 q=-0.0 size=N/A time=00:03:47.60 bitrate=N/A speed=19.2x    frame= 5742 fps=464 q=-0.0 size=N/A time=00:03:59.48 bitrate=N/A speed=19.3x    frame= 6015 fps=466 q=-0.0 size=N/A time=00:04:10.87 bitrate=N/A speed=19.4x    frame= 6301 fps=469 q=-0.0 size=N/A time=00:04:22.80 bitrate=N/A speed=19.6x    frame= 6558 fps=470 q=-0.0 size=N/A time=00:04:33.52 bitrate=N/A speed=19.6x    frame= 6811 fps=471 q=-0.0 size=N/A time=00:04:44.07 bitrate=N/A speed=19.7x    frame= 7050 fps=471 q=-0.0 size=N/A time=00:04:54.04 bitrate=N/A speed=19.6x    frame= 7307 fps=472 q=-0.0 size=N/A time=00:05:04.76 bitrate=N/A speed=19.7x    frame= 7591 fps=474 q=-0.0 size=N/A time=00:05:16.60 bitrate=N/A speed=19.8x    frame= 7870 fps=477 q=-0.0 size=N/A time=00:05:28.24 bitrate=N/A speed=19.9x    frame= 8139 fps=478 q=-0.0 size=N/A time=00:05:39.46 bitrate=N/A speed=19.9x    frame= 8422 fps=480 q=-0.0 size=N/A time=00:05:51.26 bitrate=N/A speed=  20x    frame= 8679 fps=481 q=-0.0 size=N/A time=00:06:01.98 bitrate=N/A speed=  20x    frame= 8947 fps=482 q=-0.0 size=N/A time=00:06:13.16 bitrate=N/A speed=20.1x    frame= 9233 fps=483 q=-0.0 size=N/A time=00:06:25.09 bitrate=N/A speed=20.2x    frame= 9487 fps=483 q=-0.0 size=N/A time=00:06:35.68 bitrate=N/A speed=20.2x    frame= 9702 fps=482 q=-0.0 size=N/A time=00:06:44.65 bitrate=N/A speed=20.1x    frame= 9869 fps=478 q=-0.0 size=N/A time=00:06:51.61 bitrate=N/A speed=19.9x    frame=10027 fps=474 q=-0.0 size=N/A time=00:06:58.20 bitrate=N/A speed=19.8x    frame=10232 fps=472 q=-0.0 size=N/A time=00:07:06.75 bitrate=N/A speed=19.7x    frame=10446 fps=471 q=-0.0 size=N/A time=00:07:15.68 bitrate=N/A speed=19.6x    frame=10619 fps=467 q=-0.0 size=N/A time=00:07:22.90 bitrate=N/A speed=19.5x    frame=10845 fps=467 q=-0.0 size=N/A time=00:07:32.32 bitrate=N/A speed=19.5x    frame=11044 fps=465 q=-0.0 size=N/A time=00:07:40.62 bitrate=N/A speed=19.4x    frame=11200 fps=462 q=-0.0 size=N/A time=00:07:47.13 bitrate=N/A speed=19.2x    frame=11314 fps=457 q=-0.0 size=N/A time=00:07:51.88 bitrate=N/A speed=  19x    frame=11505 fps=455 q=-0.0 size=N/A time=00:07:59.85 bitrate=N/A speed=  19x    frame=11703 fps=453 q=-0.0 size=N/A time=00:08:08.11 bitrate=N/A speed=18.9x    frame=11956 fps=454 q=-0.0 size=N/A time=00:08:18.66 bitrate=N/A speed=18.9x    frame=12146 fps=453 q=-0.0 size=N/A time=00:08:26.58 bitrate=N/A speed=18.9x    frame=12319 fps=450 q=-0.0 size=N/A time=00:08:33.80 bitrate=N/A speed=18.8x    frame=12488 fps=448 q=-0.0 size=N/A time=00:08:40.85 bitrate=N/A speed=18.7x    frame=12667 fps=446 q=-0.0 size=N/A time=00:08:48.31 bitrate=N/A speed=18.6x    frame=12827 fps=444 q=-0.0 size=N/A time=00:08:54.99 bitrate=N/A speed=18.5x    frame=13097 fps=445 q=-0.0 size=N/A time=00:09:06.25 bitrate=N/A speed=18.6x    frame=13340 fps=446 q=-0.0 size=N/A time=00:09:16.38 bitrate=N/A speed=18.6x    frame=13514 fps=444 q=-0.0 size=N/A time=00:09:23.64 bitrate=N/A speed=18.5x    frame=13699 fps=442 q=-0.0 size=N/A time=00:09:31.36 bitrate=N/A speed=18.4x    frame=13927 fps=442 q=-0.0 size=N/A time=00:09:40.87 bitrate=N/A speed=18.4x    frame=14164 fps=442 q=-0.0 size=N/A time=00:09:50.75 bitrate=N/A speed=18.5x    frame=14369 fps=442 q=-0.0 size=N/A time=00:09:59.30 bitrate=N/A speed=18.4x    frame=14535 fps=440 q=-0.0 size=N/A time=00:10:06.23 bitrate=N/A speed=18.3x    frame=14686 fps=437 q=-0.0 size=N/A time=00:10:12.52 bitrate=N/A speed=18.2x    frame=14864 fps=436 q=-0.0 size=N/A time=00:10:19.95 bitrate=N/A speed=18.2x    frame=15043 fps=435 q=-0.0 size=N/A time=00:10:27.41 bitrate=N/A speed=18.1x    frame=15181 fps=432 q=-0.0 size=N/A time=00:10:33.17 bitrate=N/A speed=  18x    frame=15338 fps=430 q=-0.0 size=N/A time=00:10:39.72 bitrate=N/A speed=  18x    frame=15529 fps=429 q=-0.0 size=N/A time=00:10:47.68 bitrate=N/A speed=17.9x    frame=15694 fps=428 q=-0.0 size=N/A time=00:10:54.57 bitrate=N/A speed=17.9x    frame=15854 fps=426 q=-0.0 size=N/A time=00:11:01.24 bitrate=N/A speed=17.8x    frame=16101 fps=427 q=-0.0 size=N/A time=00:11:11.54 bitrate=N/A speed=17.8x    frame=16361 fps=428 q=-0.0 size=N/A time=00:11:22.39 bitrate=N/A speed=17.9x    frame=16627 fps=429 q=-0.0 size=N/A time=00:11:33.48 bitrate=N/A speed=17.9x    frame=16881 fps=430 q=-0.0 size=N/A time=00:11:44.07 bitrate=N/A speed=17.9x    frame=17142 fps=431 q=-0.0 size=N/A time=00:11:54.96 bitrate=N/A speed=  18x    frame=17423 fps=432 q=-0.0 size=N/A time=00:12:06.68 bitrate=N/A speed=  18x    frame=17695 fps=434 q=-0.0 size=N/A time=00:12:18.02 bitrate=N/A speed=18.1x    frame=17960 fps=435 q=-0.0 size=N/A time=00:12:29.08 bitrate=N/A speed=18.1x    frame=18214 fps=435 q=-0.0 size=N/A time=00:12:39.67 bitrate=N/A speed=18.2x    frame=18480 fps=436 q=-0.0 size=N/A time=00:12:50.77 bitrate=N/A speed=18.2x    frame=18750 fps=438 q=-0.0 size=N/A time=00:13:02.03 bitrate=N/A speed=18.2x    frame=19022 fps=439 q=-0.0 size=N/A time=00:13:13.37 bitrate=N/A speed=18.3x    frame=19262 fps=439 q=-0.0 size=N/A time=00:13:23.38 bitrate=N/A speed=18.3x    frame=19536 fps=440 q=-0.0 size=N/A time=00:13:34.81 bitrate=N/A speed=18.3x    frame=19820 fps=441 q=-0.0 size=N/A time=00:13:46.65 bitrate=N/A speed=18.4x    frame=20090 fps=442 q=-0.0 size=N/A time=00:13:57.92 bitrate=N/A speed=18.4x    frame=20375 fps=443 q=-0.0 size=N/A time=00:14:09.80 bitrate=N/A speed=18.5x    frame=20652 fps=444 q=-0.0 size=N/A time=00:14:21.36 bitrate=N/A speed=18.5x    frame=20901 fps=445 q=-0.0 size=N/A time=00:14:31.74 bitrate=N/A speed=18.5x    frame=21161 fps=445 q=-0.0 size=N/A time=00:14:42.59 bitrate=N/A speed=18.6x    frame=21443 fps=446 q=-0.0 size=N/A time=00:14:54.35 bitrate=N/A speed=18.6x    frame=21701 fps=447 q=-0.0 size=N/A time=00:15:05.11 bitrate=N/A speed=18.6x    frame=21984 fps=448 q=-0.0 size=N/A time=00:15:16.91 bitrate=N/A speed=18.7x    frame=22254 fps=449 q=-0.0 size=N/A time=00:15:28.17 bitrate=N/A speed=18.7x    frame=22540 fps=450 q=-0.0 size=N/A time=00:15:40.10 bitrate=N/A speed=18.8x    frame=22819 fps=451 q=-0.0 size=N/A time=00:15:51.74 bitrate=N/A speed=18.8x    frame=23105 fps=452 q=-0.0 size=N/A time=00:16:03.67 bitrate=N/A speed=18.8x    frame=23369 fps=453 q=-0.0 size=N/A time=00:16:14.68 bitrate=N/A speed=18.9x    frame=23622 fps=453 q=-0.0 size=N/A time=00:16:25.23 bitrate=N/A speed=18.9x    frame=23899 fps=454 q=-0.0 size=N/A time=00:16:36.78 bitrate=N/A speed=18.9x    frame=24178 fps=455 q=-0.0 size=N/A time=00:16:48.42 bitrate=N/A speed=  19x    frame=24455 fps=455 q=-0.0 size=N/A time=00:16:59.97 bitrate=N/A speed=  19x    frame=24736 fps=456 q=-0.0 size=N/A time=00:17:11.69 bitrate=N/A speed=  19x    frame=25024 fps=457 q=-0.0 size=N/A time=00:17:23.70 bitrate=N/A speed=19.1x    frame=25262 fps=457 q=-0.0 size=N/A time=00:17:33.63 bitrate=N/A speed=19.1x    frame=25502 fps=457 q=-0.0 size=N/A time=00:17:43.64 bitrate=N/A speed=19.1x    frame=25764 fps=458 q=-0.0 size=N/A time=00:17:54.57 bitrate=N/A speed=19.1x    frame=25989 fps=458 q=-0.0 size=N/A time=00:18:03.95 bitrate=N/A speed=19.1x    frame=26247 fps=458 q=-0.0 size=N/A time=00:18:14.71 bitrate=N/A speed=19.1x    frame=26474 fps=458 q=-0.0 size=N/A time=00:18:24.18 bitrate=N/A speed=19.1x    frame=26716 fps=458 q=-0.0 size=N/A time=00:18:34.27 bitrate=N/A speed=19.1x    frame=26989 fps=459 q=-0.0 size=N/A time=00:18:45.66 bitrate=N/A speed=19.1x    frame=27256 fps=459 q=-0.0 size=N/A time=00:18:56.80 bitrate=N/A speed=19.1x    frame=27502 fps=459 q=-0.0 size=N/A time=00:19:07.06 bitrate=N/A speed=19.2x    frame=27742 fps=459 q=-0.0 size=N/A time=00:19:17.07 bitrate=N/A speed=19.2x    frame=27962 fps=459 q=-0.0 size=N/A time=00:19:26.24 bitrate=N/A speed=19.1x    frame=28237 fps=460 q=-0.0 size=N/A time=00:19:37.71 bitrate=N/A speed=19.2x    frame=28513 fps=460 q=-0.0 size=N/A time=00:19:49.22 bitrate=N/A speed=19.2x    frame=28784 fps=461 q=-0.0 size=N/A time=00:20:00.53 bitrate=N/A speed=19.2x    frame=29032 fps=461 q=-0.0 size=N/A time=00:20:10.87 bitrate=N/A speed=19.2x    frame=29307 fps=461 q=-0.0 size=N/A time=00:20:22.34 bitrate=N/A speed=19.2x    frame=29580 fps=462 q=-0.0 size=N/A time=00:20:33.73 bitrate=N/A speed=19.3x    frame=29858 fps=463 q=-0.0 size=N/A time=00:20:45.32 bitrate=N/A speed=19.3x    frame=30117 fps=463 q=-0.0 size=N/A time=00:20:56.12 bitrate=N/A speed=19.3x    frame=30390 fps=463 q=-0.0 size=N/A time=00:21:07.51 bitrate=N/A speed=19.3x    frame=30650 fps=464 q=-0.0 size=N/A time=00:21:18.36 bitrate=N/A speed=19.3x    frame=30892 fps=464 q=-0.0 size=N/A time=00:21:28.45 bitrate=N/A speed=19.3x    frame=31142 fps=464 q=-0.0 size=N/A time=00:21:38.88 bitrate=N/A speed=19.4x    frame=31344 fps=463 q=-0.0 size=N/A time=00:21:47.30 bitrate=N/A speed=19.3x    frame=31612 fps=464 q=-0.0 size=N/A time=00:21:58.48 bitrate=N/A speed=19.4x    frame=31892 fps=464 q=-0.0 size=N/A time=00:22:10.16 bitrate=N/A speed=19.4x    frame=32149 fps=465 q=-0.0 size=N/A time=00:22:20.88 bitrate=N/A speed=19.4x    frame=32390 fps=465 q=-0.0 size=N/A time=00:22:30.93 bitrate=N/A speed=19.4x    frame=32594 fps=464 q=-0.0 size=N/A time=00:22:39.44 bitrate=N/A speed=19.4x    frame=32809 fps=464 q=-0.0 size=N/A time=00:22:48.40 bitrate=N/A speed=19.3x    frame=33040 fps=464 q=-0.0 size=N/A time=00:22:58.04 bitrate=N/A speed=19.3x    frame=33246 fps=463 q=-0.0 size=N/A time=00:23:06.63 bitrate=N/A speed=19.3x    frame=33446 fps=463 q=-0.0 size=N/A time=00:23:14.97 bitrate=N/A speed=19.3x    frame=33671 fps=463 q=-0.0 size=N/A time=00:23:24.36 bitrate=N/A speed=19.3x    frame=33886 fps=462 q=-0.0 size=N/A time=00:23:33.32 bitrate=N/A speed=19.3x    frame=34119 fps=462 q=-0.0 size=N/A time=00:23:43.04 bitrate=N/A speed=19.3x    [Parsed_ssim_10 @ 000001853568b540] SSIM Y:0.995059 (23.061888) U:0.993129 (21.630012) V:0.993355 (21.775076) All:0.994453 (22.559750)
[out#0/null @ 0000018528994e80] video:14697KiB audio:267524KiB subtitle:0KiB other streams:0KiB global headers:0KiB muxing overhead: unknown
frame=34204 fps=462 q=-0.0 Lsize=N/A time=00:23:46.59 bitrate=N/A speed=19.3x    
